<?xml version="1.0" encoding="utf-8"?>
<!-- Generator: Adobe Illustrator 19.0.0, SVG Export Plug-In . SVG Version: 6.00 Build 0)  -->
<svg version="1.1" id="Layer_1" xmlns="http://www.w3.org/2000/svg" xmlns:xlink="http://www.w3.org/1999/xlink" x="0px" y="0px"
	 viewBox="0 0 146.4 65.3" style="enable-background:new 0 0 146.4 65.3;" xml:space="preserve">
<style type="text/css">
	.st0{clip-path:url(#XMLID_55_);fill:url(#XMLID_56_);}
	.st1{fill-rule:evenodd;clip-rule:evenodd;fill:#4D4D4F;}
	.st2{fill:url(#XMLID_57_);}
	.st3{fill:url(#XMLID_58_);}
</style>
<g id="XMLID_1_">
	<g id="XMLID_223_">
		<defs>
			<path id="XMLID_225_" d="M54.2,13.4C54.2,13.4,54.2,13.3,54.2,13.4l2.3,0v1.7h-2.3C54.2,14.5,54.2,13.9,54.2,13.4 M52.6,11.8
				C52.6,11.8,52.6,11.9,52.6,11.8l0,4.9h5.4v-4.9H52.6z M99.8,24.6c0,0.6,0,1.3,0,1.9c-0.9,0-1.9,0-2.9,0c-0.6,0-1.3,0-1.9,0v-1.9
				c0,0,0,0,0,0c0.6,0,1.3,0,1.9,0c0.3,0,0.6,0,0.9,0C98.4,24.6,99.1,24.6,99.8,24.6 M63.1,21.1h11c0.5,0,0.9,0.2,1,0.6
				c0.1,0.2,0,0.5,0,0.7v12c1.6,0,3.4,0,5,0c0,0.7,0,1.5,0,2.3h-7.3V23h-7.5c0,4.5,0,9.2,0,13.7H54.2V21.1c0,0,0,0,0,0h2.3v13.3
				c1.4,0,2.8,0,4.2,0c0.8,0,1.6,0,2.4,0C63.2,30,63.1,25.5,63.1,21.1 M126.4,4.8v28c-1.7,0-3.4,0-5.1,0c-2.4,0-4.9,0-7.3,0
				c0-2.6,0-5.3,0-7.9h8.9v-5.4h-12.2c-0.6,0-1.2,0-1.7,0c-0.1,0-0.1,0-0.2,0c-0.3,0.2-0.2,0.7-0.2,1.2v12.1h0H95c0-0.6,0-1.2,0-1.8
				h5c1.6,0,3.3,0,4.9,0c0,0,0.1,0,0.1,0V19.5H91c-0.3,0-0.7,0-0.9,0.1c-0.2,0.1-0.2,0.6-0.2,1v12.3c0,0,0,0,0,0c-0.9,0-1.7,0-2.5,0
				c-0.6,0-1.1,0-1.7,0c0-5.3,0-10.7,0-16h4v-5.4c-1.3,0-2.7,0-4.1,0c0-2.2,0-4.4,0-6.6h-5.4c0,0,0,0,0,0v28h-3.5c0-2.3,0-4.8,0-7.1
				c0-1.2,0.1-2.4,0-3.6c0-0.3,0-0.5-0.1-0.8c-0.2-0.7-0.6-1.3-1.1-1.6c-0.4-0.2-0.8-0.3-1.4-0.3H61.6c0,4.4,0,8.9,0,13.3
				c-0.5,0-0.9,0-1.4,0c-0.7,0-1.4,0-2.1,0v0V19.6c0,0,0,0,0,0h-5.4v18.7h14.3V24.6c0,0,0,0,0,0h4.4v13.7c0,0,0,0,0,0h60.5
				c0-4.4,0-8.9,0-13.3c0.6,0,1.2,0,1.8,0c0.9,0,1.8,0,2.7,0v13.3h5.1V24.1c0-1.2,0.1-2.5-0.2-3.3c-0.4-0.8-1.1-1.3-2.2-1.3h-7.1
				V4.8H126.4z"/>
		</defs>
		<clipPath id="XMLID_55_">
			<use xlink:href="#XMLID_225_"  style="overflow:visible;"/>
		</clipPath>
		
			<radialGradient id="XMLID_56_" cx="-215.5606" cy="469.4856" r="0.9991" gradientTransform="matrix(33.5568 0 0 -33.5568 7330.6182 15776.002)" gradientUnits="userSpaceOnUse">
			<stop  offset="0" style="stop-color:#0089CF"/>
			<stop  offset="1" style="stop-color:#0072BC"/>
		</radialGradient>
		<rect id="XMLID_706_" x="52.6" y="4.8" class="st0" width="88.9" height="33.4"/>
	</g>
	<path id="XMLID_244_" class="st1" d="M56.4,45.1h0.1c-0.1,1.2-0.2,2.6-0.3,3.9c0,0.2-0.1,0.4,0,0.6c0.1,0.2,0.3,0.3,0.6,0.3
		c0,0.1-0.1,0.1-0.1,0.1c-0.2,0-0.5,0-0.8,0c-0.3,0-0.6,0-0.9,0c0,0-0.1,0-0.1,0c0,0,0-0.1,0-0.1c0,0,0.2,0,0.3,0
		c0.5-0.1,0.4-0.9,0.5-1.4h-1c-0.1,0-0.3,0-0.3,0c-0.1,0-0.2,0.2-0.2,0.3c-0.1,0.1-0.1,0.2-0.2,0.3c-0.2,0.2-0.6,0.7-0.1,0.9
		c0,0,0.1,0,0.1,0c0,0,0,0.1,0,0.1c0,0-0.2,0-0.3,0h-1.1c0-0.2,0.2-0.1,0.3-0.2c0.1,0,0.2-0.1,0.2-0.1c0.3-0.3,0.6-0.7,0.9-1.1
		C54.7,47.4,55.6,46.2,56.4,45.1 M55.1,47.2c-0.2,0.3-0.4,0.6-0.6,0.8c0,0-0.1,0.1,0,0.1h1.2c0.1-0.6,0.1-1.3,0.2-1.9
		C55.6,46.6,55.4,46.9,55.1,47.2"/>
	<path id="XMLID_247_" class="st1" d="M103.6,45.1h0.1c-0.1,1.2-0.2,2.6-0.3,3.9c0,0.2-0.1,0.4,0,0.6c0.1,0.2,0.3,0.3,0.6,0.3
		c0,0.1-0.1,0.1-0.1,0.1c-0.2,0-0.5,0-0.8,0c-0.3,0-0.6,0-0.9,0c0,0-0.1,0-0.1,0c0,0,0-0.1,0-0.1c0,0,0.2,0,0.3,0
		c0.5-0.1,0.4-0.9,0.5-1.4h-1c-0.1,0-0.3,0-0.3,0c-0.1,0-0.2,0.2-0.2,0.3c-0.1,0.1-0.1,0.2-0.2,0.3c-0.2,0.2-0.6,0.7-0.1,0.9
		c0,0,0.1,0,0.2,0c0,0,0,0.1,0,0.1c0,0-0.2,0-0.3,0h-1.1c0-0.2,0.2-0.1,0.3-0.2c0.1,0,0.2-0.1,0.2-0.1c0.3-0.3,0.6-0.7,0.9-1.1
		C101.9,47.4,102.8,46.2,103.6,45.1 M102.3,47.2c-0.2,0.3-0.4,0.6-0.6,0.8c0,0-0.1,0.1,0,0.1h1.2c0.1-0.6,0.1-1.3,0.2-1.9
		C102.8,46.6,102.6,46.9,102.3,47.2"/>
	<path id="XMLID_250_" class="st1" d="M84.7,45.4c0.5-0.1,0.6,0.7,0,0.7C84.4,46,84.3,45.5,84.7,45.4"/>
	<path id="XMLID_251_" class="st1" d="M132.2,45.4c0.5-0.1,0.5,0.7,0,0.7C131.8,46,131.8,45.5,132.2,45.4"/>
	<path id="XMLID_252_" class="st1" d="M92.5,45.9c-0.1,0.3-0.2,0.6-0.3,0.9c0.1,0,0.3,0,0.5,0c0,0.1,0,0.1-0.1,0.2h-0.5
		c-0.2,0.4-0.3,0.9-0.4,1.3c-0.1,0.3-0.2,0.6-0.3,1c0,0.1-0.1,0.2,0,0.3c0.3-0.1,0.4-0.4,0.6-0.5c0,0,0.1,0.1,0.1,0.1
		c-0.2,0.3-0.5,0.9-1,0.8c-0.4-0.1-0.2-0.6-0.1-1c0.2-0.6,0.4-1.4,0.6-1.9c-0.1,0-0.4,0-0.5,0c0-0.1,0-0.1,0-0.1
		c0.6-0.2,1-0.6,1.3-1H92.5z"/>
	<path id="XMLID_253_" class="st1" d="M111.8,45.9c-0.1,0.3-0.2,0.6-0.3,0.9c0.1,0,0.3,0,0.5,0c0,0.1,0,0.1-0.1,0.2h-0.5
		c-0.2,0.4-0.3,0.9-0.4,1.3c-0.1,0.3-0.2,0.6-0.3,1c0,0.1-0.1,0.2,0,0.3c0.3-0.1,0.4-0.4,0.6-0.5c0.1,0,0.1,0.1,0.1,0.1
		c-0.2,0.3-0.5,0.9-1,0.8c-0.4-0.1-0.2-0.6-0.1-1c0.2-0.6,0.4-1.4,0.6-1.9c-0.1,0-0.4,0-0.5,0c0-0.1,0-0.1,0-0.1
		c0.6-0.2,0.9-0.6,1.3-1H111.8z"/>
	<path id="XMLID_254_" class="st1" d="M129.7,45.9c-0.1,0.3-0.2,0.6-0.3,0.9c0.1,0,0.3,0,0.5,0c0,0.1,0,0.1-0.1,0.2h-0.5
		c-0.2,0.4-0.3,0.9-0.4,1.3c-0.1,0.3-0.2,0.6-0.3,1c0,0.1-0.1,0.2,0,0.3c0.3-0.1,0.4-0.4,0.6-0.5c0.1,0,0.1,0.1,0.1,0.1
		c-0.2,0.3-0.6,0.9-1,0.8c-0.4-0.1-0.2-0.6-0.1-1c0.2-0.6,0.4-1.4,0.6-1.9c-0.1,0-0.4,0-0.5,0c0-0.1,0-0.1,0-0.1
		c0.6-0.2,1-0.6,1.3-1H129.7z"/>
	<path id="XMLID_255_" class="st1" d="M84.7,49.2C84.8,49.2,84.8,49.2,84.7,49.2c0.1,0.1,0,0.2,0,0.2c-0.1,0.2-0.3,0.4-0.6,0.5
		c-0.2,0.1-0.5,0.1-0.6-0.2c0-0.2,0.1-0.5,0.1-0.7c0.2-0.5,0.3-1,0.5-1.6c0.1-0.2,0.1-0.4,0-0.5c-0.1-0.1-0.3,0-0.4,0
		c0-0.2,0.1-0.1,0.2-0.1c0.3,0,0.7-0.1,1-0.2c0,0,0,0,0,0c-0.2,0.8-0.5,1.7-0.8,2.5c0,0.1-0.1,0.3,0,0.4c0.1,0,0.3-0.1,0.3-0.2
		c0,0,0.1-0.1,0.1-0.1C84.6,49.3,84.6,49.2,84.7,49.2"/>
	<path id="XMLID_256_" class="st1" d="M132.2,49.2C132.2,49.2,132.2,49.2,132.2,49.2c0.1,0.1,0,0.2,0,0.2c-0.1,0.2-0.3,0.4-0.5,0.5
		c-0.2,0.1-0.5,0.1-0.6-0.2c0-0.2,0.1-0.5,0.1-0.7c0.2-0.5,0.4-1,0.5-1.6c0.1-0.2,0.1-0.4,0-0.5c-0.1-0.1-0.3,0-0.4,0
		c0-0.2,0.1-0.1,0.2-0.1c0.3,0,0.7-0.1,1-0.2c0,0,0,0,0,0c-0.2,0.8-0.5,1.7-0.8,2.5c0,0.1-0.1,0.3,0,0.4c0.1,0,0.3-0.1,0.3-0.2
		c0,0,0.1-0.1,0.1-0.1C132.1,49.3,132.1,49.2,132.2,49.2"/>
	<path id="XMLID_257_" class="st1" d="M58.8,49.9c-0.1,0.2-0.2,0.6-0.3,1c-0.1,0.2-0.1,0.4,0.1,0.5c0,0,0.1,0,0.2,0c0,0,0.1,0,0.1,0
		c0,0.1-0.1,0.1-0.1,0.1c-0.2,0-0.5,0-0.7,0h-0.9c0,0,0-0.1,0-0.1c0,0,0.2,0,0.3,0c0.3-0.1,0.3-0.3,0.4-0.5c0.3-1,0.6-2,0.9-3.1
		c0-0.2,0.1-0.4,0.1-0.5c-0.1-0.2-0.4-0.1-0.5-0.1c0-0.1,0.1-0.1,0.2-0.1c0.3-0.1,0.7-0.1,1-0.1c-0.1,0.3-0.2,0.5-0.2,0.8
		c0,0,0,0,0,0c0.3-0.3,0.6-0.8,1.2-0.8c0.5,0,0.8,0.4,0.8,0.8c0,0.7-0.3,1.2-0.6,1.6c-0.3,0.4-0.7,0.8-1.4,0.8
		C59.2,50,59.1,50,58.8,49.9 M59.7,49.8c0.6-0.2,1.2-1.2,1.2-2c0-0.1,0-0.3,0-0.4c-0.1-0.4-0.4-0.5-0.7-0.3c-0.4,0.2-0.7,0.6-0.8,1
		c-0.2,0.4-0.3,1-0.4,1.4C59.1,49.8,59.4,49.9,59.7,49.8"/>
	<path id="XMLID_260_" class="st1" d="M63.3,49.9c-0.1,0.2-0.2,0.6-0.3,1c-0.1,0.2-0.1,0.4,0.1,0.5c0,0,0.1,0,0.2,0c0,0,0.1,0,0.1,0
		c0,0.1-0.1,0.1-0.1,0.1c-0.2,0-0.4,0-0.7,0h-0.9c0,0,0-0.1,0-0.1c0,0,0.2,0,0.3,0c0.3-0.1,0.3-0.3,0.4-0.5c0.3-1,0.6-2,0.9-3.1
		c0-0.2,0.1-0.4,0.1-0.5c-0.1-0.2-0.4-0.1-0.5-0.1c-0.1-0.1,0.1-0.1,0.2-0.1c0.3-0.1,0.7-0.1,1-0.1C64.1,47,64,47.3,64,47.5
		c0,0,0,0,0,0c0.3-0.3,0.6-0.8,1.2-0.8c0.5,0,0.8,0.4,0.8,0.8c0,0.7-0.3,1.2-0.6,1.6C65.1,49.6,64.7,50,64,50
		C63.7,50,63.6,50,63.3,49.9 M64.2,49.8c0.6-0.2,1.2-1.2,1.2-2c0-0.1,0-0.3,0-0.4c0-0.4-0.4-0.5-0.7-0.3c-0.4,0.2-0.6,0.6-0.8,1
		c-0.2,0.4-0.3,1-0.4,1.4C63.6,49.8,63.9,49.9,64.2,49.8"/>
	<path id="XMLID_263_" class="st1" d="M69.4,47.3c-0.2,0-0.3,0.1-0.3,0.2c-0.6,0.6-1,1.4-1.3,2.4h-0.5c0.2-0.7,0.5-1.6,0.7-2.4
		c0-0.1,0.1-0.3,0.1-0.4c0-0.2-0.3-0.1-0.5-0.1c0,0,0-0.1,0-0.1c0-0.1,0.2-0.1,0.3-0.1c0.3,0,0.6-0.1,0.9-0.1
		c-0.1,0.6-0.3,1.1-0.5,1.6c0,0,0,0,0,0c0.3-0.5,0.6-1,1.1-1.4c0.1-0.1,0.3-0.3,0.5-0.3c0.3,0.1,0.2,0.8-0.1,0.9c-0.1,0-0.2,0-0.2,0
		C69.4,47.5,69.5,47.4,69.4,47.3"/>
	<path id="XMLID_264_" class="st1" d="M72.6,46.8c0.8-0.1,1.3,0.4,1.2,1.3c-0.1,1-0.9,1.9-1.9,1.9c-0.7,0.1-1.2-0.5-1.2-1.3
		c0-0.4,0.3-0.9,0.5-1.2c0.2-0.3,0.6-0.5,1-0.7C72.4,46.8,72.5,46.8,72.6,46.8 M72,47.4c-0.1,0.2-0.3,0.4-0.4,0.6
		c-0.2,0.5-0.6,1.7,0.1,1.9c0.3,0.1,0.6-0.1,0.8-0.3c0.2-0.2,0.3-0.4,0.4-0.6c0.1-0.2,0.2-0.5,0.3-0.8c0-0.3,0.1-0.7-0.1-0.9
		C73,47,72.8,46.9,72.6,47C72.3,47,72.1,47.2,72,47.4"/>
	<path id="XMLID_267_" class="st1" d="M75.7,49.9c-0.1,0.2-0.2,0.6-0.3,1c-0.1,0.2-0.1,0.4,0.1,0.5c0,0,0.1,0,0.2,0c0,0,0.1,0,0.1,0
		c0,0.1-0.1,0.1-0.1,0.1c-0.2,0-0.5,0-0.7,0h-0.9c0,0,0-0.1,0-0.1c0,0,0.2,0,0.3,0c0.2-0.1,0.3-0.3,0.4-0.5c0.3-1,0.6-2,0.9-3.1
		c0.1-0.2,0.1-0.4,0.1-0.5c-0.1-0.2-0.4-0.1-0.5-0.1c-0.1-0.1,0.1-0.1,0.2-0.1c0.3-0.1,0.7-0.1,1-0.1c-0.1,0.3-0.2,0.5-0.2,0.8
		c0,0,0,0,0,0c0.3-0.3,0.6-0.8,1.2-0.8c0.5,0,0.8,0.4,0.8,0.8c0,0.7-0.3,1.2-0.6,1.6C77.5,49.6,77,50,76.4,50
		C76.1,50,75.9,50,75.7,49.9 M76.6,49.8c0.6-0.2,1.2-1.2,1.2-2c0-0.1,0-0.3,0-0.4c-0.1-0.4-0.4-0.5-0.7-0.3c-0.4,0.2-0.6,0.6-0.8,1
		c-0.2,0.4-0.3,1-0.4,1.4C76,49.8,76.3,49.9,76.6,49.8"/>
	<path id="XMLID_270_" class="st1" d="M81.8,47.3c-0.2,0-0.3,0.1-0.3,0.2c-0.6,0.6-1,1.4-1.2,2.4h-0.5c0.2-0.7,0.5-1.6,0.7-2.4
		c0-0.1,0.1-0.3,0.1-0.4c0-0.2-0.4-0.1-0.5-0.1c0,0,0-0.1,0-0.1c0-0.1,0.2-0.1,0.3-0.1c0.3,0,0.6-0.1,0.9-0.1
		c-0.1,0.6-0.3,1.1-0.5,1.6c0,0,0,0,0,0c0.3-0.5,0.6-1,1.1-1.4c0.1-0.1,0.3-0.3,0.6-0.3c0.3,0.1,0.2,0.8-0.1,0.9c-0.1,0-0.2,0-0.2,0
		C81.8,47.5,81.8,47.4,81.8,47.3"/>
	<path id="XMLID_271_" class="st1" d="M94.3,48.6c-0.1,0.6,0.2,1,0.6,1c0.5,0,0.9-0.3,1.2-0.5c0-0.1,0.1-0.1,0.1,0
		c0.1,0.1,0,0.1-0.1,0.2c-0.1,0.1-0.4,0.3-0.5,0.4c-0.3,0.2-1,0.5-1.5,0.2c-0.3-0.1-0.5-0.5-0.5-0.8c0-0.1,0-0.2,0-0.3
		c0-0.6,0.3-1,0.6-1.4c0.3-0.4,0.8-0.7,1.3-0.7c0.4,0,0.8,0.1,0.8,0.4c0.1,0.4-0.2,0.7-0.4,0.9C95.6,48.4,94.9,48.6,94.3,48.6
		 M96,47.5c0.1-0.2,0-0.5-0.1-0.5c-0.3-0.2-0.6,0.1-0.8,0.2c-0.4,0.3-0.7,0.8-0.8,1.3C95,48.4,95.8,48.1,96,47.5"/>
	<path id="XMLID_274_" class="st1" d="M108.3,46.9h0.5c-0.2,0.8-0.5,1.6-0.7,2.5c0,0.1-0.1,0.3,0,0.4c0.2,0,0.2-0.2,0.3-0.4
		c0,0,0-0.1,0.1-0.1c0.1,0,0,0.2,0,0.3c-0.1,0.2-0.4,0.6-0.8,0.5c-0.3-0.1-0.1-0.7-0.1-0.9c0.1-0.3,0.2-0.5,0.2-0.7
		c-0.3,0.4-0.6,1-1.1,1.4c-0.2,0.1-0.5,0.3-0.8,0.3c-0.4-0.1-0.3-0.6-0.2-1c0.1-0.5,0.3-0.9,0.5-1.5c0-0.1,0.1-0.3,0.1-0.3
		c-0.1-0.2-0.4,0-0.4,0.1c0,0-0.1,0.1-0.2,0.2c-0.1,0.1-0.1,0.1-0.2,0.1c-0.1-0.1,0.1-0.2,0.1-0.3c0.2-0.2,0.5-0.5,0.8-0.5
		c0.6,0,0.3,0.7,0.2,1c-0.2,0.4-0.3,0.9-0.5,1.4c0,0.1-0.1,0.2-0.1,0.3c0,0.2,0.3,0.1,0.4,0c0.1-0.1,0.3-0.2,0.3-0.3
		C107.6,48.6,108,47.9,108.3,46.9"/>
	<path id="XMLID_275_" class="st1" d="M114.8,46.8c0.8-0.1,1.3,0.4,1.2,1.3c-0.1,1-0.9,1.9-1.9,1.9c-0.7,0.1-1.2-0.5-1.2-1.3
		c0-0.4,0.3-0.9,0.5-1.2c0.3-0.3,0.6-0.5,1-0.7C114.6,46.8,114.7,46.8,114.8,46.8 M114.2,47.4c-0.1,0.2-0.3,0.4-0.4,0.6
		c-0.2,0.5-0.6,1.7,0.1,1.9c0.3,0.1,0.6-0.1,0.8-0.3c0.2-0.2,0.3-0.4,0.4-0.6c0.1-0.2,0.2-0.5,0.3-0.8c0.1-0.3,0.1-0.7-0.1-0.9
		c-0.1-0.1-0.3-0.2-0.5-0.2C114.5,47,114.3,47.2,114.2,47.4"/>
	<path id="XMLID_278_" class="st1" d="M118.3,48.3c0.1-0.1,0.2-0.3,0.3-0.4c0.2-0.3,0.4-0.6,0.7-0.8c0.2-0.1,0.4-0.3,0.7-0.3
		c0.2,0,0.3,0.2,0.3,0.4c0,0.2-0.1,0.5-0.1,0.7c-0.1,0.2-0.1,0.4-0.2,0.6c0.2-0.3,0.4-0.6,0.6-1c0.2-0.3,0.5-0.6,0.9-0.7
		c0.4-0.1,0.5,0.1,0.5,0.5c0,0.2-0.1,0.4-0.1,0.6c-0.2,0.5-0.3,1-0.5,1.5c0,0.1-0.1,0.2,0,0.3c0.2,0,0.3-0.2,0.4-0.4
		c0.1-0.1,0-0.1,0.1-0.1c0.1,0,0,0,0,0.1c0,0.1-0.1,0.2-0.2,0.2c-0.1,0.1-0.3,0.3-0.4,0.4c-0.2,0.1-0.5,0.1-0.6-0.2
		c0-0.2,0.1-0.5,0.2-0.7c0.2-0.5,0.2-0.7,0.4-1.3c0.1-0.2,0.2-0.5,0-0.6c-0.1-0.1-0.3,0.1-0.4,0.1c-0.7,0.6-1.2,1.6-1.5,2.6H119
		c0.2-0.7,0.4-1.3,0.6-2.1c0-0.1,0.2-0.6,0-0.7c-0.3-0.1-0.6,0.3-0.7,0.5c-0.2,0.2-0.3,0.5-0.5,0.7c-0.3,0.5-0.5,1-0.6,1.6h-0.5
		c0.2-0.7,0.4-1.6,0.7-2.3c0.1-0.2,0.2-0.5-0.1-0.5c-0.1,0-0.2,0-0.2,0c-0.1,0-0.1,0.1-0.1-0.1c0,0,0.1,0,0.1,0
		c0.3-0.1,0.7-0.1,1.1-0.2C118.6,47.3,118.4,47.8,118.3,48.3"/>
	<path id="XMLID_279_" class="st1" d="M135.7,46.8c0.8-0.1,1.2,0.4,1.2,1.3c-0.1,1-0.9,1.9-1.9,1.9c-0.8,0.1-1.3-0.5-1.2-1.3
		c0-0.4,0.3-0.9,0.5-1.2c0.3-0.3,0.6-0.5,1-0.7C135.4,46.8,135.5,46.8,135.7,46.8 M135,47.4c-0.1,0.2-0.3,0.4-0.4,0.6
		c-0.2,0.5-0.6,1.7,0.1,1.9c0.3,0.1,0.6-0.1,0.8-0.3c0.2-0.2,0.3-0.4,0.4-0.6c0.1-0.2,0.2-0.5,0.3-0.8c0.1-0.3,0.1-0.7-0.1-0.9
		c-0.1-0.1-0.3-0.2-0.6-0.2C135.3,47,135.1,47.2,135,47.4"/>
	<path id="XMLID_282_" class="st1" d="M140.7,49.7c0.1,0,0.2-0.1,0.3-0.2c0,0,0.1-0.1,0.1-0.1c0-0.1,0.1-0.1,0.1-0.1
		c0.1,0,0,0.1,0,0.1c-0.1,0.1-0.2,0.3-0.3,0.4c-0.1,0.1-0.5,0.4-0.8,0.2c-0.2-0.2,0-0.6,0.1-0.8c0.1-0.4,0.3-0.8,0.4-1.2
		c0.1-0.2,0.3-0.7,0-0.7c-0.1,0-0.3,0.1-0.4,0.2c-0.4,0.2-0.6,0.6-0.8,0.9c-0.4,0.5-0.6,1-0.7,1.6h-0.5c0.2-0.7,0.5-1.6,0.7-2.3
		c0.1-0.2,0.1-0.5-0.1-0.5c-0.1,0-0.1,0-0.2,0c-0.1,0-0.1,0-0.1-0.1c0,0,0.1,0,0.1,0c0.3-0.1,0.8-0.1,1.1-0.2
		c-0.2,0.5-0.3,1-0.4,1.5c0,0,0,0,0,0c0.4-0.4,0.7-1,1.2-1.4c0.2-0.1,0.4-0.2,0.6-0.2c0.2,0,0.4,0.2,0.4,0.6c0,0.2-0.1,0.4-0.2,0.6
		c-0.2,0.5-0.3,0.9-0.5,1.4C140.7,49.5,140.6,49.6,140.7,49.7"/>
	<path id="XMLID_283_" class="st1" d="M88.9,47.3c0-0.1,0.1-0.2,0.1-0.4c0.2,0,0.4-0.1,0.5-0.1c-0.2,0.8-0.5,1.7-0.7,2.5
		c0,0.1-0.1,0.2,0,0.4c0.2-0.1,0.2-0.3,0.4-0.5c0,0,0,0,0.1,0.1c0,0.1-0.1,0.2-0.1,0.2c-0.1,0.1-0.3,0.4-0.5,0.5
		c-0.2,0.1-0.4,0-0.4-0.2c-0.1-0.3,0.1-0.6,0.1-0.8c-0.2,0.2-0.4,0.4-0.6,0.6c-0.2,0.2-0.5,0.4-1,0.4c-0.4,0-0.6-0.3-0.6-0.8
		c0-0.9,0.6-1.7,1.2-2.1c0.3-0.2,0.5-0.4,0.9-0.3C88.6,46.8,88.8,47,88.9,47.3 M87.7,47.3c-0.2,0.2-0.4,0.5-0.6,0.9
		c-0.1,0.3-0.4,0.9-0.2,1.2c0,0.1,0.2,0.2,0.3,0.3c0.2,0,0.4-0.1,0.6-0.1c0.3-0.2,0.6-0.6,0.8-0.9c0.2-0.4,0.5-1.6-0.3-1.5
		C88,47,87.8,47.2,87.7,47.3"/>
	<path id="XMLID_286_" class="st1" d="M126.1,47.3c0.1-0.1,0.1-0.2,0.1-0.4c0.2,0,0.4-0.1,0.5-0.1c-0.2,0.8-0.5,1.7-0.7,2.5
		c0,0.1-0.1,0.2,0,0.4c0.2-0.1,0.2-0.3,0.4-0.5c0,0,0.1,0,0.1,0.1c0,0.1,0,0.2-0.1,0.2c-0.1,0.1-0.3,0.4-0.5,0.5
		c-0.2,0.1-0.4,0-0.4-0.2c-0.1-0.3,0.1-0.6,0.1-0.8c-0.2,0.2-0.4,0.4-0.6,0.6c-0.2,0.2-0.5,0.4-1,0.4c-0.4,0-0.6-0.3-0.6-0.8
		c0-0.9,0.6-1.7,1.2-2.1c0.3-0.2,0.5-0.4,1-0.3C125.9,46.8,126.1,47,126.1,47.3 M124.9,47.3c-0.2,0.2-0.5,0.5-0.6,0.9
		c-0.1,0.3-0.4,0.9-0.2,1.2c0.1,0.1,0.2,0.2,0.3,0.3c0.2,0,0.4-0.1,0.6-0.1c0.3-0.2,0.6-0.6,0.8-0.9c0.2-0.4,0.5-1.6-0.3-1.5
		C125.2,47,125,47.2,124.9,47.3"/>
	<path id="XMLID_289_" class="st1" d="M73,54.8C73,54.7,73,54.7,73,54.8l0.7,0c0,0,0.1,0.1,0.1,0.1v0.9c0,0-0.1,0.1-0.1,0.1H73
		c0,0-0.1-0.1-0.1-0.1c0-0.2-0.1-0.6,0-0.8C72.9,54.8,73,54.8,73,54.8"/>
	<path id="XMLID_290_" class="st1" d="M91.6,56.7c0.1,0,0.1-0.1,0.2-0.1c0.7-0.5,1.9-0.3,2.3,0.4c0.2,0.5,0.2,1.2,0.2,1.9
		c0,0.7,0,1.4,0,2c0,0,0,0-0.1,0.1c-0.1,0.1-0.7,0-0.7,0c0,0,0-0.1-0.1-0.1c0-0.9,0-1.7,0-2.6c0-0.5-0.1-0.9-0.4-1
		c-0.6-0.3-1.1,0.2-1.2,0.5c-0.1,0.4-0.1,1.1-0.1,1.6v0.8c0,0.3,0.1,0.7-0.1,0.8c-0.1,0.1-0.5,0-0.8,0c0,0-0.1,0-0.1-0.1
		c-0.1-0.1,0-0.5,0-0.7v-5.3c0,0,0.1-0.1,0.1-0.1c0.2,0.1,0.6-0.1,0.7,0c0.1,0.1,0.1,0.7,0.1,0.9V56.7z"/>
	<path id="XMLID_291_" class="st1" d="M100.4,56.7c0.1,0,0.1-0.1,0.2-0.1c0.7-0.5,1.9-0.3,2.3,0.4c0.2,0.5,0.2,1.2,0.2,1.9
		c0,0.7,0,1.4,0,2c0,0,0,0-0.1,0.1c-0.1,0.1-0.7,0-0.8,0c0,0,0-0.1-0.1-0.1c0-0.9,0-1.7,0-2.6c0-0.5-0.1-0.9-0.4-1
		c-0.6-0.3-1.1,0.2-1.2,0.5c-0.1,0.4-0.1,1.1-0.1,1.6v0.8c0,0.3,0,0.7-0.1,0.8c-0.1,0.1-0.5,0-0.8,0c0,0-0.1,0-0.1-0.1
		c-0.1-0.1,0-0.5,0-0.7c0-1.7,0-3.6,0-5.3c0,0,0.1-0.1,0.1-0.1c0.3,0.1,0.6-0.1,0.7,0c0.1,0.1,0.1,0.7,0.1,0.9V56.7z"/>
	<path id="XMLID_292_" class="st1" d="M122.7,54.8C122.7,54.7,122.7,54.7,122.7,54.8l0.7,0c0,0,0.1,0.1,0.1,0.1v0.9
		c0,0-0.1,0.1-0.1,0.1h-0.7c0,0-0.1-0.1-0.1-0.1c0-0.2-0.1-0.6,0-0.8C122.6,54.8,122.7,54.8,122.7,54.8"/>
	<path id="XMLID_293_" class="st1" d="M80.4,54.9c0.1,0,0.1,0.1,0.2,0.1v1.4c0.2,0.1,0.6-0.1,0.7,0.1v0.6c-0.1,0.2-0.4,0.1-0.7,0.1
		v2.2c0,0.2,0,0.5,0,0.7c0.1,0.2,0.5,0,0.6,0.2c0.1,0.3,0.1,0.5,0.1,0.8c-0.7,0.2-1.4,0.1-1.6-0.4c-0.2-0.4-0.1-1.1-0.1-1.6v-1.7
		h-0.4c0,0-0.1-0.1-0.1-0.1v-0.6c0,0,0.1-0.1,0.1-0.1h0.4c0-0.2,0-0.5,0-0.8c0-0.1,0-0.2,0-0.2c0-0.1,0.3-0.2,0.4-0.2
		C80.1,55,80.2,55,80.4,54.9"/>
	<path id="XMLID_294_" class="st1" d="M75.6,56.4c0.1,0,0.1,0.2,0.1,0.4c0.3-0.2,0.6-0.4,1-0.5c0.5,0,1,0.1,1.3,0.4
		c0.4,0.5,0.4,1.1,0.4,1.9v1.7c0,0.1,0,0.4,0,0.5c-0.1,0.1-0.6,0-0.8,0c0,0,0,0-0.1-0.1c-0.1-0.9,0-2,0-3c0-0.2,0-0.3-0.1-0.5
		c-0.3-0.5-1.1-0.3-1.4,0c-0.3,0.3-0.2,1.1-0.2,1.8v1.3c0,0.2,0,0.3,0,0.4c-0.1,0.1-0.6,0-0.8,0c0,0,0,0-0.1-0.1c0-1.4,0-3,0-4.4
		c0,0,0.1,0,0.1-0.1C75.2,56.4,75.5,56.4,75.6,56.4"/>
	<path id="XMLID_295_" class="st1" d="M85.7,59h-3c0.1,0.5,0.2,0.9,0.6,1.1c0.3,0.2,0.7,0.2,0.9,0.1c0.3-0.1,0.5-0.5,0.6-0.8
		c0.1,0,0.3,0,0.5,0.1c0.2,0,0.4,0,0.4,0.1c0,0.1-0.1,0.4-0.2,0.6c-0.3,0.5-0.7,0.8-1.3,0.9c-1,0.2-1.7-0.3-2.1-0.9
		c-0.4-0.7-0.4-1.8-0.2-2.5c0.3-0.8,0.9-1.4,2-1.4c0.7,0,1.1,0.4,1.4,0.8C85.6,57.6,85.7,58.2,85.7,59 M83.6,57.1
		c-0.5,0-0.9,0.5-0.9,1h2C84.6,57.5,84.3,57.1,83.6,57.1"/>
	<path id="XMLID_298_" class="st1" d="M89.2,58c-0.1-0.6-0.6-1.1-1.3-0.8c-0.4,0.2-0.6,0.7-0.7,1.3c0,0.8,0.1,1.5,0.6,1.7
		c0.6,0.3,1.1-0.1,1.2-0.6c0-0.1,0-0.4,0.1-0.4c0.1-0.1,0.3,0,0.4,0c0.2,0,0.3,0,0.4,0.1c0.1,0.1-0.1,0.5-0.1,0.7
		c-0.2,0.6-0.7,1-1.5,1.1c-0.8,0.1-1.3-0.3-1.6-0.6c-0.3-0.4-0.5-0.9-0.5-1.6c0-0.7,0.1-1.3,0.4-1.8c0.3-0.4,0.9-0.8,1.7-0.8
		c0.8,0.1,1.3,0.5,1.5,1.2c0,0.1,0.1,0.2,0.1,0.3c0,0.1-0.2,0.1-0.4,0.1C89.5,58,89.3,58,89.2,58"/>
	<path id="XMLID_299_" class="st1" d="M98,58c-0.1-0.6-0.6-1.1-1.2-0.8c-0.4,0.2-0.6,0.7-0.7,1.3c0,0.8,0.1,1.5,0.6,1.7
		c0.6,0.3,1.1-0.1,1.3-0.6c0-0.1,0-0.4,0.1-0.4c0.1-0.1,0.3,0,0.4,0c0.2,0,0.3,0,0.4,0.1c0.1,0.1-0.1,0.5-0.1,0.7
		c-0.2,0.6-0.7,1-1.5,1.1c-0.8,0.1-1.3-0.3-1.6-0.6c-0.3-0.4-0.5-0.9-0.6-1.6c0-0.7,0.1-1.3,0.4-1.8c0.3-0.4,0.9-0.8,1.7-0.8
		c0.8,0.1,1.3,0.5,1.5,1.2c0,0.1,0.1,0.2,0.1,0.3c0,0.1-0.2,0.1-0.4,0.1C98.3,58,98.1,58,98,58"/>
	<path id="XMLID_300_" class="st1" d="M107.9,59h-3c0.1,0.5,0.2,0.9,0.6,1.1c0.3,0.2,0.7,0.2,0.9,0.1c0.3-0.1,0.5-0.5,0.6-0.8
		c0.1,0,0.3,0,0.5,0.1c0.2,0,0.4,0,0.4,0.1c0,0.1-0.1,0.4-0.2,0.6c-0.3,0.5-0.7,0.8-1.3,0.9c-1,0.2-1.7-0.3-2.1-0.9
		c-0.4-0.7-0.4-1.8-0.2-2.5c0.3-0.8,0.9-1.4,2-1.4c0.7,0,1.1,0.4,1.4,0.8C107.8,57.6,107.9,58.2,107.9,59 M105.8,57.1
		c-0.6,0-0.9,0.5-1,1h2C106.8,57.5,106.5,57.1,105.8,57.1"/>
	<path id="XMLID_303_" class="st1" d="M109.5,56.4c0.1,0,0.1,0.2,0.1,0.4c0.3-0.2,0.6-0.4,1-0.5c0.5,0,1,0.1,1.3,0.4
		c0.4,0.5,0.4,1.1,0.4,1.9v1.7c0,0.1,0,0.4,0,0.5c-0.1,0.1-0.6,0-0.8,0c0,0-0.1,0-0.1-0.1c-0.1-0.9,0.1-2,0-3c0-0.2,0-0.3-0.1-0.5
		c-0.3-0.5-1.1-0.3-1.4,0c-0.3,0.3-0.2,1.1-0.2,1.8v1.3c0,0.2,0,0.3,0,0.4c-0.1,0.1-0.6,0-0.8,0c0,0,0,0-0.1-0.1c0-1.4,0-3,0-4.4
		c0,0,0.1,0,0.1-0.1C109,56.4,109.3,56.4,109.5,56.4"/>
	<path id="XMLID_304_" class="st1" d="M114.1,56.4c0.1,0,0.1,0.2,0.1,0.4c0.3-0.2,0.6-0.4,1-0.5c0.5,0,1,0.1,1.3,0.4
		c0.4,0.5,0.4,1.1,0.4,1.9v1.7c0,0.1,0,0.4,0,0.5c-0.1,0.1-0.6,0-0.8,0c0,0,0,0-0.1-0.1c-0.1-0.9,0.1-2,0-3c0-0.2,0-0.3-0.1-0.5
		c-0.3-0.5-1.1-0.3-1.4,0c-0.3,0.3-0.2,1.1-0.2,1.8v1.3c0,0.2,0,0.3,0,0.4c-0.1,0.1-0.6,0-0.8,0c0,0,0,0-0.1-0.1c0-1.4,0-3,0-4.4
		c0,0,0.1,0,0.1-0.1C113.6,56.4,113.9,56.4,114.1,56.4"/>
	<path id="XMLID_305_" class="st1" d="M121.6,61c-0.2,0-0.6,0-0.8,0c0-0.1-0.1-0.3-0.1-0.4c-0.1,0-0.1,0-0.1,0.1
		c-0.3,0.2-0.6,0.4-1.1,0.4c-0.9,0.1-1.7-0.4-1.7-1.5c0-0.5,0.3-0.8,0.6-1c0.6-0.4,1.5-0.3,2.3-0.5c0-0.2,0-0.4-0.1-0.6
		c-0.2-0.4-1-0.5-1.4-0.2c-0.3,0.2-0.3,0.5-0.4,0.7c-0.3,0-0.6-0.1-0.8-0.1c-0.1-0.1,0-0.2,0-0.4c0.1-0.3,0.2-0.6,0.4-0.7
		c0.3-0.3,0.8-0.4,1.2-0.4c0.7,0,1.3,0.1,1.6,0.5c0.4,0.5,0.3,1.4,0.3,2.1c0,0.4,0,0.8,0,1.2c0,0.2,0,0.4,0.1,0.5
		C121.6,60.6,121.7,60.8,121.6,61C121.7,60.9,121.6,60.9,121.6,61 M119.7,59c-0.3,0-0.6,0.1-0.8,0.2c-0.3,0.2-0.2,0.7,0,0.9
		c0.3,0.2,0.7,0.1,1,0c0.4-0.2,0.6-0.6,0.6-1.3c0,0,0,0,0,0C120.3,58.9,120,59,119.7,59"/>
	<path id="XMLID_308_" class="st1" d="M129.6,58c-0.1-0.6-0.6-1.1-1.2-0.8c-0.4,0.2-0.6,0.7-0.7,1.3c0,0.8,0.1,1.5,0.6,1.7
		c0.6,0.3,1.1-0.1,1.3-0.6c0-0.1,0-0.4,0.1-0.4c0.1-0.1,0.3,0,0.4,0c0.2,0,0.3,0,0.4,0.1c0.1,0.1-0.1,0.5-0.1,0.7
		c-0.2,0.6-0.7,1-1.5,1.1c-0.8,0.1-1.3-0.3-1.6-0.6c-0.3-0.4-0.5-0.9-0.5-1.6c0-0.7,0.1-1.3,0.4-1.8c0.3-0.4,0.9-0.8,1.7-0.8
		c0.8,0.1,1.3,0.5,1.5,1.2c0,0.1,0.1,0.2,0.1,0.3c0,0.1-0.2,0.1-0.4,0.1C129.9,58,129.8,58,129.6,58"/>
	<path id="XMLID_309_" class="st1" d="M132.7,56.3c0.8-0.1,1.5,0.3,1.8,0.8c0.5,0.7,0.6,2.2,0.1,3c-0.4,0.7-1.5,1.3-2.6,0.8
		c-0.4-0.2-0.7-0.5-0.9-1c-0.3-0.7-0.3-1.7,0-2.4c0.2-0.4,0.4-0.8,0.9-1C132.2,56.4,132.5,56.3,132.7,56.3 M132.1,57.6
		c-0.3,0.5-0.3,1.6,0,2.2c0.2,0.4,0.7,0.6,1.2,0.4c0.2-0.1,0.4-0.2,0.5-0.4c0.3-0.5,0.3-1.6,0-2.1c-0.2-0.3-0.5-0.6-1-0.5
		C132.5,57.2,132.2,57.3,132.1,57.6"/>
	<path id="XMLID_312_" class="st1" d="M138.9,56.9c0.3-0.4,0.7-0.7,1.4-0.6c0.3,0,0.6,0.2,0.8,0.3c0.4,0.4,0.4,1.1,0.4,1.9
		c0,0.8,0,1.6,0,2.3c0,0-0.1,0-0.1,0.1c-0.2,0-0.5,0-0.7,0c0,0,0,0-0.1-0.1c0-0.8,0-1.7,0-2.6c0-0.6,0-1.1-0.5-1.1
		c-0.4,0-0.7,0.2-0.8,0.4c-0.2,0.3-0.1,1-0.1,1.6v1.3c0,0.2,0,0.3-0.1,0.4c-0.1,0.1-0.7,0-0.8,0c-0.1-0.1-0.1-0.3-0.1-0.5
		c0-0.8,0-1.6,0-2.4c0-0.4-0.1-0.7-0.3-0.8c-0.3-0.1-0.7,0-0.9,0.2c-0.3,0.3-0.3,1.1-0.3,1.9v0.9c0,0.3,0,0.7,0,0.8
		c-0.1,0.1-0.6,0-0.8,0c0,0,0,0-0.1-0.1c0-1.4,0-3,0-4.4c0,0,0.1,0,0.1-0.1c0.2,0,0.5,0,0.7,0c0.1,0,0.1,0.2,0.1,0.4
		c0.2-0.2,0.5-0.4,1-0.5C138.2,56.2,138.7,56.5,138.9,56.9"/>
	<path id="XMLID_313_" class="st1" d="M52.8,56.4h0.8c0.3,1,0.5,2,0.8,3.1c0.3-1,0.5-2.1,0.8-3.1H56c0.2,1,0.5,2,0.7,3
		c0.1-0.2,0.2-0.5,0.2-0.7c0.2-0.7,0.4-1.5,0.6-2.3h0.8c0,0.1,0.1,0.1,0.1,0.1c-0.4,1.5-0.9,3-1.3,4.4h-0.9c-0.2-1-0.5-2-0.7-3
		c0,0-0.1,0.1-0.1,0.2c-0.2,0.9-0.4,1.9-0.7,2.8h-0.9c-0.4-1.3-0.8-2.8-1.2-4.2C52.7,56.6,52.6,56.5,52.8,56.4"/>
	<path id="XMLID_314_" class="st1" d="M58.7,56.4h0.8c0.3,1,0.5,2,0.8,3.1c0.3-1,0.5-2.1,0.8-3.1h0.9c0.2,1,0.5,2,0.7,3
		c0.1-0.2,0.2-0.5,0.2-0.7c0.2-0.7,0.4-1.5,0.6-2.3h0.8c0,0.1,0.1,0.1,0.1,0.1c-0.4,1.5-0.9,3-1.3,4.4h-0.9c-0.2-1-0.5-2-0.7-3
		c0,0-0.1,0.1-0.1,0.2c-0.2,0.9-0.5,1.9-0.7,2.8h-0.9c-0.4-1.3-0.8-2.8-1.2-4.2C58.6,56.6,58.5,56.5,58.7,56.4"/>
	<path id="XMLID_315_" class="st1" d="M64.6,56.4h0.8c0.3,1,0.5,2,0.8,3.1c0.3-1,0.5-2.1,0.8-3.1h0.9c0.2,1,0.5,2,0.7,3
		c0.1-0.2,0.2-0.5,0.2-0.7c0.2-0.7,0.4-1.5,0.6-2.3h0.8c0,0.1,0.1,0.1,0.1,0.1c-0.4,1.5-0.9,3-1.3,4.4h-0.9c-0.2-1-0.5-2-0.7-3
		c0,0-0.1,0.1-0.1,0.2c-0.2,0.9-0.5,1.9-0.7,2.8h-0.9c-0.4-1.3-0.8-2.8-1.2-4.2C64.5,56.6,64.5,56.5,64.6,56.4"/>
	<path id="XMLID_316_" class="st1" d="M73,56.4C73,56.4,73,56.4,73,56.4c0.3,0,0.6-0.1,0.8,0c0.1,0.1,0.1,0.3,0.1,0.5v3.4
		c0,0.2,0,0.5,0,0.5C73.7,61,73.6,61,73.4,61c-0.2,0-0.3,0-0.4,0c-0.1-0.1-0.1-0.3-0.1-0.5v-1.7L73,56.4C73,56.5,73,56.4,73,56.4"/>
	<path id="XMLID_317_" class="st1" d="M122.7,56.4C122.7,56.4,122.7,56.4,122.7,56.4c0.3,0,0.6-0.1,0.8,0c0.1,0.1,0.1,0.3,0.1,0.5
		v3.4c0,0.2,0,0.5,0,0.5c-0.1,0.1-0.2,0.1-0.4,0.1c-0.2,0-0.3,0-0.4,0c-0.1-0.1-0.1-0.3-0.1-0.5v-1.7L122.7,56.4
		C122.6,56.5,122.6,56.4,122.7,56.4"/>
	<path id="XMLID_318_" class="st1" d="M70.8,59.9C70.8,59.9,70.8,59.9,70.8,59.9l0.8,0c0,0,0.1,0.1,0.1,0.1v0.8c0,0-0.1,0.1-0.1,0.1
		h-0.8c0,0-0.1-0.1-0.1-0.1c0-0.2-0.1-0.6,0-0.8C70.7,60,70.8,60,70.8,59.9"/>
	<path id="XMLID_319_" class="st1" d="M124.9,59.9C124.9,59.9,124.9,59.9,124.9,59.9l0.8,0c0,0,0.1,0.1,0.1,0.1v0.8
		c0,0-0.1,0.1-0.1,0.1h-0.8c0,0-0.1-0.1-0.1-0.1c0-0.2-0.1-0.6,0-0.8C124.8,60,124.8,60,124.9,59.9"/>
	<radialGradient id="XMLID_57_" cx="23.7414" cy="28.6945" r="17.1339" gradientUnits="userSpaceOnUse">
		<stop  offset="0" style="stop-color:#0089CF"/>
		<stop  offset="1" style="stop-color:#0072BC"/>
	</radialGradient>
	<path id="XMLID_320_" class="st2" d="M34,21.6c-0.6-0.3-1.2-0.6-1.8-0.8c-2.3-1-5.1-1.7-8.3-1.7c-0.4,0-0.7,0-1.1,0
		c-2.2,0.1-4.2,0.5-6,1.1c-3.2,1.1-5.8,2.7-8.1,4.7c-1.8,1.6-3.3,3.5-4.6,5.7c-1.2,2.2-2.2,4.7-2.6,7.6H11c0.8-3,2.3-5.2,4.4-6.9
		c1-0.8,2.2-1.5,3.6-2.1c1.4-0.5,2.9-0.9,4.8-0.9c1.8,0,3.4,0.3,4.8,0.9c2.7,1.1,4.8,2.8,6.3,5.1c0.8,1.1,1.4,2.4,1.7,3.9H46
		c-0.5-3-1.4-5.5-2.7-7.7C41.1,26.7,38,23.7,34,21.6z"/>
	<path id="XMLID_321_" class="st1" d="M1.5,44.9h9.5c0.8,3,2.3,5.2,4.4,7c1,0.8,2.2,1.6,3.6,2.1c1.4,0.5,3,0.9,4.8,0.9
		c1.8,0,3.4-0.4,4.8-0.9c1.4-0.5,2.6-1.3,3.6-2.1c2.1-1.7,3.6-4,4.4-7H46c-0.4,3-1.4,5.5-2.6,7.7c-1.9,3.3-4.4,6-7.6,8
		c-1.1,0.7-2.2,1.3-3.4,1.8c-2.5,1-5.3,1.7-8.6,1.7c-3.4,0-6.2-0.7-8.7-1.7c-1.2-0.5-2.4-1.1-3.4-1.8c-3.2-2-5.7-4.7-7.6-8
		C2.9,50.5,1.9,47.9,1.5,44.9C1.5,44.9,1.4,44.9,1.5,44.9"/>
	<g id="XMLID_322_">
		<radialGradient id="XMLID_58_" cx="143.4772" cy="2.8686" r="1.9997" gradientUnits="userSpaceOnUse">
			<stop  offset="0" style="stop-color:#0089CF"/>
			<stop  offset="1" style="stop-color:#0072BC"/>
		</radialGradient>
		<path id="XMLID_323_" class="st3" d="M145.5,2.9c0,1.1-0.9,2-2,2c-1.1,0-2-0.9-2-2c0-1.1,0.9-2,2-2C144.6,0.9,145.5,1.8,145.5,2.9
			z M142,2.9c0,0.9,0.6,1.6,1.5,1.6c0.9,0,1.5-0.7,1.5-1.6c0-0.9-0.6-1.6-1.5-1.6C142.6,1.3,142,2,142,2.9z M143.2,3.9h-0.5v-2
			c0.2,0,0.4-0.1,0.8-0.1c0.4,0,0.5,0.1,0.7,0.1c0.1,0.1,0.2,0.2,0.2,0.4c0,0.2-0.2,0.4-0.4,0.5v0c0.2,0.1,0.3,0.2,0.4,0.5
			c0.1,0.3,0.1,0.4,0.1,0.5H144c-0.1-0.1-0.1-0.3-0.2-0.5c0-0.2-0.2-0.3-0.4-0.3h-0.2V3.9z M143.2,2.8h0.2c0.3,0,0.5-0.1,0.5-0.3
			c0-0.2-0.1-0.3-0.4-0.3c-0.1,0-0.2,0-0.3,0V2.8z"/>
	</g>
</g>
</svg>
